<svg width="25" height="24" viewBox="0 0 25 24" fill="none" xmlns="http://www.w3.org/2000/svg">
<path fill-rule="evenodd" clip-rule="evenodd" d="M9.85851 4.72641C10.3559 5.10871 10.6419 5.67879 10.6419 6.29047C10.6419 11.221 10.8119 12.5478 11.5069 13.0527C11.9629 13.3822 12.5878 13.3788 14.6934 13.3214C15.6721 13.2933 16.9254 13.2573 18.5669 13.2573C19.2216 13.2573 19.8385 13.5317 20.2566 14.0096C20.6449 14.4537 20.8149 15.0339 20.7253 15.6051C19.9579 20.4682 15.7307 24 10.6741 24C5.06381 24 0.5 19.5327 0.5 14.0422C0.5 9.68845 3.86341 5.33472 7.99761 4.33849C8.64318 4.18444 9.337 4.32837 9.85851 4.72641ZM8.52027 5.96327C8.48351 5.96327 8.44675 5.96776 8.40999 5.97676C4.99833 6.79871 2.22306 10.4171 2.22306 14.0422C2.22306 18.6028 6.01379 22.3134 10.6741 22.3134C14.8749 22.3134 18.3854 19.3843 19.0217 15.3476C19.0263 15.3139 19.0424 15.2161 18.9482 15.107C18.8586 15.0047 18.7162 14.944 18.5669 14.944C16.946 14.944 15.7089 14.9799 14.7428 15.0069C12.404 15.0755 11.4368 15.1014 10.4811 14.4076C9.1145 13.4166 8.93482 11.7506 8.91999 7.07536L8.91887 6.29047C8.91887 6.19602 8.87751 6.11731 8.79481 6.05434C8.71784 5.99475 8.6202 5.96327 8.52027 5.96327ZM21.2346 3.07386C23.254 5.04946 24.536 7.64573 24.4992 9.68879C24.4854 10.486 23.8939 11.1517 23.0944 11.2697C21.5344 11.5002 19.708 11.5699 18.0917 11.5699C16.5869 11.5699 15.2625 11.5103 14.5009 11.4676C13.5429 11.4125 12.7801 10.6648 12.725 9.72702C12.6354 8.24054 12.4413 4.46364 12.5791 1.54241C12.617 0.693473 13.3177 0.0177 14.1747 0.00308265C16.6294 -0.066631 19.1623 1.04879 21.2346 3.07386ZM14.3217 1.68858H14.2964C14.1701 4.52098 14.3573 8.17983 14.4446 9.6292C14.4492 9.71578 14.5135 9.77874 14.6008 9.78324C15.7817 9.84958 19.8504 10.034 22.7762 9.61233C22.7831 8.03365 21.6792 5.89277 20.017 4.26686C18.3123 2.60048 16.2952 1.68858 14.3217 1.68858Z" fill="#676767"/>
</svg>
