<svg width="58" height="58" viewBox="0 0 58 58" fill="none" xmlns="http://www.w3.org/2000/svg">
<path d="M19.1563 35.5625C18.5073 35.5625 17.8729 35.3701 17.3333 35.0095C16.7937 34.649 16.3731 34.1365 16.1248 33.5369C15.8764 32.9374 15.8115 32.2776 15.9381 31.6411C16.0647 31.0046 16.3772 30.4199 16.8361 29.9611C17.295 29.5022 17.8796 29.1897 18.5161 29.063C19.1526 28.9364 19.8124 29.0014 20.4119 29.2498C21.0115 29.4981 21.524 29.9187 21.8845 30.4583C22.2451 30.9979 22.4375 31.6323 22.4375 32.2812C22.4375 33.1515 22.0918 33.9861 21.4765 34.6014C20.8611 35.2168 20.0265 35.5625 19.1563 35.5625ZM38.8438 29C38.1948 29 37.5604 29.1924 37.0208 29.553C36.4812 29.9135 36.0606 30.426 35.8123 31.0256C35.5639 31.6251 35.499 32.2849 35.6256 32.9214C35.7522 33.5579 36.0647 34.1426 36.5236 34.6014C36.9825 35.0603 37.5671 35.3728 38.2036 35.4995C38.8401 35.6261 39.4999 35.5611 40.0994 35.3127C40.699 35.0644 41.2115 34.6438 41.572 34.1042C41.9326 33.5646 42.125 32.9302 42.125 32.2812C42.125 31.411 41.7793 30.5764 41.164 29.9611C40.5486 29.3457 39.714 29 38.8438 29ZM57.4375 29C57.4375 34.6244 55.7697 40.1225 52.6449 44.799C49.5202 49.4755 45.0788 53.1205 39.8826 55.2728C34.6863 57.4252 28.9685 57.9883 23.4521 56.8911C17.9358 55.7938 12.8687 53.0854 8.89166 49.1083C4.91461 45.1313 2.2062 40.0642 1.10893 34.5479C0.0116642 29.0315 0.574822 23.3137 2.72719 18.1174C4.87956 12.9212 8.52446 8.47984 13.201 5.35508C17.8775 2.23033 23.3756 0.5625 29 0.5625C36.5397 0.570462 43.7682 3.5691 49.0996 8.90044C54.4309 14.2318 57.4296 21.4604 57.4375 29ZM53.0625 29C53.0625 24.2409 51.6513 19.5886 49.0073 15.6316C46.3632 11.6745 42.6052 8.59038 38.2083 6.76915C33.8115 4.94792 28.9733 4.4714 24.3057 5.39985C19.638 6.32831 15.3505 8.62004 11.9853 11.9852C8.62006 15.3504 6.32832 19.638 5.39987 24.3056C4.47141 28.9733 4.94793 33.8115 6.76916 38.2083C8.59039 42.6052 11.6745 46.3632 15.6316 49.0072C19.5887 51.6513 24.2409 53.0625 29 53.0625C35.3796 53.0553 41.4958 50.5178 46.0068 46.0068C50.5178 41.4957 53.0553 35.3796 53.0625 29ZM40.9109 16.2414L29 24.1848L17.0891 16.2551C16.6061 15.9331 16.015 15.8162 15.4458 15.93C14.8766 16.0438 14.3759 16.3791 14.0539 16.8621C13.7319 17.3451 13.615 17.9362 13.7288 18.5054C13.8427 19.0746 14.178 19.5753 14.6609 19.8973L27.7859 28.6473C28.1454 28.8871 28.5679 29.0151 29 29.0151C29.4321 29.0151 29.8546 28.8871 30.2141 28.6473L43.3391 19.8973C43.8221 19.5753 44.1574 19.0746 44.2712 18.5054C44.385 17.9362 44.2681 17.3451 43.9461 16.8621C43.6241 16.3791 43.1235 16.0438 42.5542 15.93C41.985 15.8162 41.3939 15.9331 40.9109 16.2551V16.2414ZM36.7738 42.4914C34.4688 40.9574 32.2649 39.9375 29 39.9375C25.7352 39.9375 23.5313 40.9574 21.2262 42.4914C20.7542 42.8173 20.4292 43.3156 20.3211 43.8789C20.2129 44.4421 20.3303 45.0253 20.6479 45.5029C20.9656 45.9804 21.4581 46.3141 22.0194 46.4321C22.5807 46.55 23.1658 46.4429 23.6488 46.1336C25.4262 44.9523 26.8125 44.3125 29 44.3125C31.1875 44.3125 32.5738 44.9523 34.3512 46.1336C34.5902 46.2987 34.8597 46.4145 35.144 46.4743C35.4282 46.5341 35.7215 46.5367 36.0068 46.4819C36.2921 46.4271 36.5636 46.3161 36.8055 46.1553C37.0474 45.9944 37.2548 45.787 37.4157 45.5452C37.5766 45.3033 37.6876 45.0318 37.7425 44.7466C37.7973 44.4613 37.7948 44.168 37.735 43.8837C37.6753 43.5994 37.5595 43.3299 37.3945 43.0909C37.2295 42.8518 37.0185 42.648 36.7738 42.4914Z" fill="#E9E9E9"/>
</svg>
