<svg width="25" height="24" viewBox="0 0 25 24" fill="none" xmlns="http://www.w3.org/2000/svg">
<path fill-rule="evenodd" clip-rule="evenodd" d="M17.4766 0C17.9861 0 18.3996 0.375068 18.3996 0.837205L18.4002 1.78359C20.1972 1.89534 21.6897 2.45362 22.7461 3.41368C23.8993 4.46409 24.5061 5.97441 24.5 7.78612V17.9699C24.5 21.6893 21.8956 24 17.7049 24H7.29505C3.1043 24 0.5 21.6569 0.5 17.8851V7.78389C0.5 4.27566 2.82252 2.02374 6.61036 1.78398L6.61111 0.837205C6.61111 0.375068 7.02465 0 7.53419 0C8.04373 0 8.45726 0.375068 8.45726 0.837205L8.45689 1.7626H16.5529L16.5535 0.837205C16.5535 0.375068 16.967 0 17.4766 0ZM22.6538 9.9393H2.34615V17.8851C2.34615 20.7494 4.10368 22.3256 7.29505 22.3256H17.7049C20.8962 22.3256 22.6538 20.7784 22.6538 17.9699L22.6538 9.9393ZM17.9783 16.9632C18.4879 16.9632 18.9014 17.3383 18.9014 17.8004C18.9014 18.2626 18.4879 18.6376 17.9783 18.6376C17.4688 18.6376 17.0503 18.2626 17.0503 17.8004C17.0503 17.3383 17.4577 16.9632 17.9673 16.9632H17.9783ZM12.5168 16.9632C13.0264 16.9632 13.4399 17.3383 13.4399 17.8004C13.4399 18.2626 13.0264 18.6376 12.5168 18.6376C12.0073 18.6376 11.5888 18.2626 11.5888 17.8004C11.5888 17.3383 11.9962 16.9632 12.5057 16.9632H12.5168ZM7.04385 16.9632C7.55339 16.9632 7.96693 17.3383 7.96693 17.8004C7.96693 18.2626 7.55339 18.6376 7.04385 18.6376C6.53432 18.6376 6.11462 18.2626 6.11462 17.8004C6.11462 17.3383 6.52324 16.9632 7.03277 16.9632H7.04385ZM17.9783 12.6246C18.4879 12.6246 18.9014 12.9997 18.9014 13.4618C18.9014 13.924 18.4879 14.299 17.9783 14.299C17.4688 14.299 17.0503 13.924 17.0503 13.4618C17.0503 12.9997 17.4577 12.6246 17.9673 12.6246H17.9783ZM12.5168 12.6246C13.0264 12.6246 13.4399 12.9997 13.4399 13.4618C13.4399 13.924 13.0264 14.299 12.5168 14.299C12.0073 14.299 11.5888 13.924 11.5888 13.4618C11.5888 12.9997 11.9962 12.6246 12.5057 12.6246H12.5168ZM7.04385 12.6246C7.55339 12.6246 7.96693 12.9997 7.96693 13.4618C7.96693 13.924 7.55339 14.299 7.04385 14.299C6.53432 14.299 6.11462 13.924 6.11462 13.4618C6.11462 12.9997 6.52324 12.6246 7.03277 12.6246H7.04385ZM16.5529 3.43701H8.45689L8.45726 4.51086C8.45726 4.973 8.04373 5.34807 7.53419 5.34807C7.02465 5.34807 6.61111 4.973 6.61111 4.51086L6.61046 3.46235C3.85326 3.67242 2.34615 5.18828 2.34615 7.78389V8.26489H22.6538L22.6538 7.78389C22.6587 6.40529 22.2501 5.33367 21.439 4.59693C20.727 3.94927 19.6862 3.56248 18.4007 3.46288L18.3996 4.51086C18.3996 4.973 17.9861 5.34807 17.4766 5.34807C16.967 5.34807 16.5535 4.973 16.5535 4.51086L16.5529 3.43701Z" fill="#8A8A8A"/>
</svg>
