<svg width="18" height="18" viewBox="0 0 18 18" fill="none" xmlns="http://www.w3.org/2000/svg">
<path fill-rule="evenodd" clip-rule="evenodd" d="M9.00144 0C11.4075 0 13.6686 0.935424 15.367 2.6346C18.8777 6.14516 18.8777 11.8565 15.367 15.3671C13.646 17.0889 11.3288 18 8.98134 18C7.70169 18 6.41367 17.7295 5.20856 17.1718C4.85348 17.0294 4.521 16.8954 4.28232 16.8954C4.00764 16.8971 3.63831 17.0244 3.28155 17.1475C2.54961 17.3987 1.63845 17.7119 0.964288 17.0403C0.292641 16.3678 0.602503 15.4592 0.852068 14.7281C0.975175 14.368 1.10163 13.9962 1.10163 13.7148C1.10163 13.4837 0.99025 13.1889 0.819407 12.7643C-0.749165 9.37685 -0.0239203 5.29431 2.63671 2.63543C4.33508 0.936261 6.5954 0 9.00144 0ZM9.00228 1.25616C6.93123 1.25616 4.98579 2.06178 3.52442 3.52396C1.23479 5.81185 0.611716 9.32493 1.9726 12.2669C2.16856 12.7517 2.35783 13.2241 2.35783 13.7148C2.35783 14.2047 2.1895 14.698 2.04127 15.1334C1.919 15.4919 1.73392 16.0328 1.85284 16.1518C1.96925 16.2724 2.5136 16.0823 2.87287 15.9592C3.30417 15.8118 3.79324 15.6426 4.27814 15.6392C4.76387 15.6392 5.22196 15.8235 5.70685 16.0186C8.67734 17.392 12.1905 16.7673 14.4793 14.4794C17.4992 11.4579 17.4992 6.54294 14.4793 3.52312C13.0171 2.06095 11.0725 1.25616 9.00228 1.25616ZM12.3077 8.51068C12.7699 8.51068 13.1451 8.88502 13.1451 9.34812C13.1451 9.81123 12.7699 10.1856 12.3077 10.1856C11.8454 10.1856 11.4669 9.81123 11.4669 9.34812C11.4669 8.88502 11.8378 8.51068 12.3001 8.51068H12.3077ZM8.95044 8.51068C9.41272 8.51068 9.7879 8.88502 9.7879 9.34812C9.7879 9.81123 9.41272 10.1856 8.95044 10.1856C8.48816 10.1856 8.10962 9.81123 8.10962 9.34812C8.10962 8.88502 8.47978 8.51068 8.9429 8.51068H8.95044ZM5.59287 8.51068C6.05515 8.51068 6.43034 8.88502 6.43034 9.34812C6.43034 9.81123 6.05515 10.1856 5.59287 10.1856C5.13059 10.1856 4.75206 9.81123 4.75206 9.34812C4.75206 8.88502 5.12306 8.51068 5.58534 8.51068H5.59287Z" fill="#8A8A8A"/>
</svg>
