<svg width="25" height="24" viewBox="0 0 25 24" fill="none" xmlns="http://www.w3.org/2000/svg">
<path fill-rule="evenodd" clip-rule="evenodd" d="M5.73077 13.5385C10.7388 13.5385 10.9615 15.2369 10.9615 18.7692C10.9615 20.5391 10.9615 21.7982 10.2182 22.72C9.36277 23.7822 7.80585 24 5.73077 24C3.65569 24 2.09877 23.7822 1.24338 22.72C0.5 21.7982 0.5 20.5403 0.5 18.8L1.42308 18.7692H0.5C0.5 15.2369 0.72277 13.5385 5.73077 13.5385ZM19.2692 13.5385C24.2772 13.5385 24.5 15.2369 24.5 18.7692C24.5 20.5391 24.5 21.7982 23.7566 22.72C22.9012 23.7822 21.3443 24 19.2692 24C17.1942 24 15.6372 23.7822 14.7818 22.72C14.0385 21.7982 14.0385 20.5403 14.0385 18.8L14.9615 18.7692H14.0385C14.0385 15.2369 14.2612 13.5385 19.2692 13.5385ZM5.98451 15.3852L5.73077 15.3846C2.51972 15.3846 2.35505 15.615 2.34661 18.3102L2.34713 19.3602C2.35296 20.4322 2.3938 21.2065 2.67969 21.5631C3.00585 21.9668 3.97446 22.1538 5.73077 22.1538C7.48708 22.1538 8.45569 21.9655 8.78185 21.5618C9.11539 21.1471 9.11539 20.1625 9.11539 18.7988C9.11539 15.7216 9.11539 15.3997 5.98451 15.3852ZM19.523 15.3852L19.2692 15.3846C16.0582 15.3846 15.8935 15.615 15.8851 18.3102L15.8856 19.3602C15.8914 20.4322 15.9323 21.2065 16.2182 21.5631C16.5443 21.9668 17.5129 22.1538 19.2692 22.1538C21.0255 22.1538 21.9942 21.9655 22.3203 21.5618C22.6538 21.1471 22.6538 20.1625 22.6538 18.7988C22.6538 15.7216 22.6538 15.3997 19.523 15.3852ZM5.73077 0C10.7388 0 10.9615 1.69846 10.9615 5.23077C10.9615 7.00062 10.9615 8.25969 10.2182 9.18154C9.36277 10.2437 7.80585 10.4615 5.73077 10.4615C3.65569 10.4615 2.09877 10.2437 1.24338 9.18154C0.5 8.25969 0.5 7.00185 0.5 5.26154L1.42308 5.23077H0.5C0.5 1.69846 0.72277 0 5.73077 0ZM19.2692 0C24.2772 0 24.5 1.69846 24.5 5.23077C24.5 7.00062 24.5 8.25969 23.7566 9.18154C22.9012 10.2437 21.3443 10.4615 19.2692 10.4615C17.1942 10.4615 15.6372 10.2437 14.7818 9.18154C14.0385 8.25969 14.0385 7.00185 14.0385 5.26154L14.9615 5.23077H14.0385C14.0385 1.69846 14.2612 0 19.2692 0ZM5.98451 1.8467L5.73077 1.84615C2.51972 1.84615 2.35505 2.07657 2.34661 4.77175L2.34713 5.82176C2.35296 6.89371 2.3938 7.66804 2.67969 8.02462C3.00585 8.42831 3.97446 8.61539 5.73077 8.61539C7.48708 8.61539 8.45569 8.42708 8.78185 8.02339C9.11539 7.60862 9.11539 6.624 9.11539 5.26031C9.11539 2.18313 9.11539 1.86119 5.98451 1.8467ZM19.523 1.8467L19.2692 1.84615C16.0582 1.84615 15.8935 2.07657 15.8851 4.77175L15.8856 5.82176C15.8914 6.89371 15.9323 7.66804 16.2182 8.02462C16.5443 8.42831 17.5129 8.61539 19.2692 8.61539C21.0255 8.61539 21.9942 8.42708 22.3203 8.02339C22.6538 7.60862 22.6538 6.624 22.6538 5.26031C22.6538 2.18313 22.6538 1.86119 19.523 1.8467Z" fill="#8A8A8A"/>
</svg>
