<svg width="12" height="6" viewBox="0 0 12 6" fill="none" xmlns="http://www.w3.org/2000/svg">
<path d="M11.2827 1.52796C11.5743 1.23376 11.5722 0.758893 11.278 0.467309C10.9838 0.175726 10.5089 0.177844 10.2173 0.472041L8.47 2.23501C7.76086 2.9505 7.27282 3.44131 6.8593 3.77341C6.4576 4.096 6.19958 4.20668 5.9685 4.23613C5.82341 4.25462 5.67659 4.25462 5.5315 4.23613C5.30042 4.20668 5.0424 4.09601 4.64071 3.77341C4.22718 3.44131 3.73914 2.95051 3.03 2.23501L1.28269 0.472042C0.991107 0.177845 0.516238 0.175726 0.222041 0.46731C-0.0721558 0.758894 -0.0742744 1.23376 0.217309 1.52796L1.99609 3.32269C2.66604 3.99866 3.21359 4.55114 3.70146 4.94294C4.20879 5.35037 4.72373 5.64531 5.34184 5.72409C5.61287 5.75864 5.88714 5.75864 6.15816 5.72409C6.77628 5.64531 7.29122 5.35037 7.79854 4.94294C8.28641 4.55114 8.83396 3.99867 9.5039 3.32269L11.2827 1.52796Z" fill="#A8A8A8"/>
</svg>
