<svg width="58" height="58" viewBox="0 0 58 58" fill="none" xmlns="http://www.w3.org/2000/svg">
<path d="M29 0.5625C23.3756 0.5625 17.8775 2.23033 13.201 5.35508C8.52446 8.47984 4.87956 12.9212 2.72719 18.1174C0.574822 23.3137 0.0116642 29.0315 1.10893 34.5479C2.2062 40.0642 4.91461 45.1313 8.89166 49.1083C12.8687 53.0854 17.9358 55.7938 23.4521 56.8911C28.9685 57.9883 34.6863 57.4252 39.8826 55.2728C45.0788 53.1205 49.5202 49.4755 52.6449 44.799C55.7697 40.1225 57.4375 34.6244 57.4375 29C57.4296 21.4604 54.4309 14.2318 49.0996 8.90044C43.7682 3.5691 36.5397 0.570462 29 0.5625ZM29 53.0625C24.2409 53.0625 19.5887 51.6513 15.6316 49.0072C11.6745 46.3632 8.59039 42.6052 6.76916 38.2083C4.94793 33.8115 4.47141 28.9733 5.39987 24.3056C6.32832 19.638 8.62006 15.3504 11.9853 11.9852C15.3505 8.62004 19.638 6.32831 24.3057 5.39985C28.9733 4.4714 33.8115 4.94792 38.2083 6.76915C42.6052 8.59038 46.3632 11.6745 49.0073 15.6316C51.6513 19.5886 53.0625 24.2409 53.0625 29C53.0553 35.3796 50.5178 41.4957 46.0068 46.0068C41.4958 50.5178 35.3796 53.0553 29 53.0625ZM15.875 23.5312C15.875 22.8823 16.0675 22.2479 16.428 21.7083C16.7886 21.1687 17.301 20.7481 17.9006 20.4998C18.5002 20.2514 19.1599 20.1864 19.7964 20.313C20.4329 20.4397 21.0176 20.7522 21.4765 21.2111C21.9353 21.6699 22.2479 22.2546 22.3745 22.8911C22.5011 23.5276 22.4361 24.1874 22.1877 24.7869C21.9394 25.3865 21.5188 25.899 20.9792 26.2595C20.4396 26.6201 19.8052 26.8125 19.1563 26.8125C18.286 26.8125 17.4514 26.4668 16.8361 25.8514C16.2207 25.2361 15.875 24.4015 15.875 23.5312ZM42.125 23.5312C42.125 24.1802 41.9326 24.8146 41.572 25.3542C41.2115 25.8938 40.699 26.3144 40.0994 26.5627C39.4999 26.8111 38.8401 26.8761 38.2036 26.7495C37.5671 26.6228 36.9825 26.3103 36.5236 25.8514C36.0647 25.3926 35.7522 24.8079 35.6256 24.1714C35.499 23.5349 35.5639 22.8751 35.8123 22.2756C36.0606 21.676 36.4812 21.1635 37.0208 20.803C37.5604 20.4424 38.1948 20.25 38.8438 20.25C39.714 20.25 40.5486 20.5957 41.164 21.2111C41.7793 21.8264 42.125 22.661 42.125 23.5312ZM41.8297 41.0312C41.988 41.2802 42.0942 41.5586 42.1421 41.8498C42.19 42.1409 42.1785 42.4387 42.1083 42.7252C42.0381 43.0118 41.9107 43.2812 41.7337 43.5172C41.5567 43.7532 41.3338 43.951 41.0784 44.0987C40.8229 44.2463 40.5403 44.3408 40.2474 44.3763C39.9545 44.4119 39.6575 44.3879 39.3742 44.3057C39.0908 44.2235 38.827 44.0848 38.5987 43.898C38.3703 43.7112 38.1821 43.4802 38.0453 43.2188C36.0027 39.6887 32.7926 37.75 29 37.75C25.2074 37.75 21.9973 39.6914 19.9547 43.2188C19.8179 43.4802 19.6297 43.7112 19.4014 43.898C19.173 44.0848 18.9092 44.2235 18.6259 44.3057C18.3425 44.3879 18.0455 44.4119 17.7526 44.3763C17.4597 44.3408 17.1771 44.2463 16.9217 44.0987C16.6662 43.951 16.4433 43.7532 16.2663 43.5172C16.0893 43.2812 15.9619 43.0118 15.8917 42.7252C15.8215 42.4387 15.81 42.1409 15.8579 41.8498C15.9058 41.5586 16.0121 41.2802 16.1703 41.0312C18.984 36.1668 23.6598 33.375 29 33.375C34.3402 33.375 39.016 36.1641 41.8297 41.0312Z" fill="#E9E9E9"/>
</svg>
