<svg width="16" height="18" viewBox="0 0 16 18" fill="none" xmlns="http://www.w3.org/2000/svg">
<path fill-rule="evenodd" clip-rule="evenodd" d="M6.33555 15.9957C6.78362 16.4788 7.35884 16.7442 7.9557 16.7442H7.95656C8.55601 16.7442 9.13383 16.4788 9.58277 15.9949C9.82324 15.7379 10.2333 15.7169 10.4988 15.9488C10.7652 16.1807 10.7869 16.5784 10.5472 16.8354C9.84833 17.5864 8.92883 18 7.95656 18H7.95483C6.98516 17.9992 6.06739 17.5856 5.37107 16.8346C5.13146 16.5776 5.15308 16.1799 5.41951 15.9488C5.68593 15.7161 6.09594 15.737 6.33555 15.9957ZM7.99877 0C11.8437 0 14.4266 2.89842 14.4266 5.60512C14.4266 6.9974 14.7925 7.58763 15.1809 8.21386C15.565 8.83172 16.0001 9.5333 16.0001 10.8594C15.6982 14.2476 12.0435 14.5239 7.99877 14.5239C3.95402 14.5239 0.29851 14.2476 7.24846e-05 10.913C-0.00251098 9.5333 0.432586 8.83172 0.816648 8.21386L0.952232 7.99297C1.28606 7.43765 1.57093 6.8336 1.57093 5.60512C1.57093 2.89842 4.15383 0 7.99877 0ZM7.99877 1.25581C4.97559 1.25581 2.86844 3.54809 2.86844 5.60512C2.86844 7.34567 2.36933 8.15023 1.92818 8.86019C1.57439 9.43033 1.29499 9.88074 1.29499 10.8594C1.43945 12.4384 2.51638 13.2681 7.99877 13.2681C13.4509 13.2681 14.5616 12.4016 14.7051 10.805C14.7026 9.88074 14.4232 9.43033 14.0694 8.86019C13.6282 8.15023 13.1291 7.34567 13.1291 5.60512C13.1291 3.54809 11.022 1.25581 7.99877 1.25581Z" fill="#8A8A8A"/>
</svg>
