<svg width="25" height="24" viewBox="0 0 25 24" fill="none" xmlns="http://www.w3.org/2000/svg">
<path fill-rule="evenodd" clip-rule="evenodd" d="M9.36273 0C10.4655 0.00116116 11.5161 0.528327 12.1747 1.40965L13.2311 2.81697C13.5662 3.26286 14.0985 3.52876 14.6551 3.52992H17.9356C22.4139 3.52992 24.5 5.82786 24.5 10.7616L24.4675 16.5291C24.4664 21.1366 21.6068 24 17.0033 24H7.97935C3.3665 24 0.5 21.1354 0.5 16.5256V7.46974C0.5 2.51275 2.70206 0 7.04356 0H9.36273ZM9.36157 1.74174H7.04356C3.67611 1.74174 2.23938 3.45561 2.23938 7.46974V16.5256C2.23938 20.2227 4.27794 22.2583 7.97935 22.2583H17.0033C20.6954 22.2583 22.7281 20.2227 22.7281 16.5256V16.5221L22.7606 10.757C22.7606 6.8102 21.4085 5.27166 17.9356 5.27166H14.6539C13.5535 5.2705 12.5029 4.7445 11.8419 3.86434L10.7832 2.45469C10.4504 2.00764 9.91818 1.7429 9.36157 1.74174ZM17.5647 14.181C18.0448 14.181 18.4344 14.5712 18.4344 15.0519C18.4344 15.5326 18.0448 15.9227 17.5647 15.9227H7.43573C6.95566 15.9227 6.56604 15.5326 6.56604 15.0519C6.56604 14.5712 6.95566 14.181 7.43573 14.181H17.5647Z" fill="#8A8A8A"/>
</svg>
