<svg width="25" height="24" viewBox="0 0 25 24" fill="none" xmlns="http://www.w3.org/2000/svg">
<path fill-rule="evenodd" clip-rule="evenodd" d="M13.2776 0C14.1687 0 15.0348 0.340524 15.6558 0.932387C16.2756 1.52773 16.6178 2.34429 16.5917 3.17243C16.5942 3.35891 16.6601 3.57434 16.7796 3.76314C16.9775 4.07586 17.2898 4.29593 17.6607 4.38627C18.0316 4.47198 18.4198 4.42566 18.7496 4.24381C20.3426 3.39713 22.3699 3.90444 23.2796 5.37542L24.0549 6.62516C24.0748 6.65875 24.0922 6.69118 24.1072 6.72477C24.931 8.17374 24.381 9.99797 22.8502 10.8308C22.6275 10.9501 22.447 11.1168 22.3226 11.3184C22.1297 11.6299 22.0762 12.0006 22.1732 12.3411C22.2728 12.6886 22.5105 12.977 22.8453 13.1553C23.6007 13.5596 24.1644 14.2406 24.3897 15.0271C24.6149 15.8124 24.4917 16.6648 24.0524 17.3679L23.2261 18.6489C22.3164 20.1037 20.2891 20.6075 18.7123 19.7597C18.502 19.6473 18.2593 19.5859 18.0179 19.5801H18.0104C17.6507 19.5801 17.2811 19.7226 17.0123 19.9716C16.7398 20.2253 16.5904 20.5635 16.5929 20.9225C16.5842 22.624 15.0971 24 13.2776 24H11.7183C9.89009 24 8.40293 22.6171 8.40293 20.9156C8.40044 20.7059 8.33572 20.4882 8.21501 20.2994C8.01962 19.982 7.70352 19.755 7.33888 19.6647C6.97674 19.5743 6.57974 19.6241 6.25369 19.8002C5.47215 20.2056 4.55247 20.304 3.71119 20.084C2.87116 19.8627 2.14562 19.3253 1.72 18.613L0.942193 17.3656C0.0324687 15.8969 0.573823 14.0148 2.14935 13.1669C2.59612 12.9272 2.87365 12.4801 2.87365 12.0006C2.87365 11.5211 2.59612 11.0728 2.14935 10.8331C0.572579 9.9806 0.0324687 8.09382 0.940948 6.62516L1.78471 5.33604C2.68199 3.8836 4.71052 3.37165 6.29227 4.21717C6.50756 4.33647 6.74153 4.3967 6.97923 4.39902C7.75455 4.39902 8.40293 3.80368 8.41537 3.07167C8.41039 2.26437 8.75263 1.4895 9.37612 0.90459C10.0021 0.320834 10.8334 0 11.7183 0H13.2776ZM13.2776 1.73737H11.7183C11.3325 1.73737 10.9716 1.87752 10.699 2.13001C10.4277 2.38367 10.2796 2.72072 10.2821 3.07977C10.256 4.77313 8.76881 6.13638 6.96803 6.13638C6.39058 6.13059 5.83429 5.98581 5.35143 5.7171C4.67318 5.35804 3.7871 5.57927 3.39011 6.22209L2.54759 7.51122C2.1618 8.13436 2.39825 8.95787 3.08521 9.32967C4.10445 9.87867 4.74038 10.9026 4.74038 12.0006C4.74038 13.0986 4.10445 14.1213 3.08272 14.6715C2.39949 15.0398 2.16304 15.8587 2.55879 16.4957L3.34406 17.7559C3.5382 18.0814 3.85555 18.3165 4.22268 18.4126C4.58856 18.5076 4.99177 18.4671 5.32778 18.2933C5.82185 18.0235 6.3968 17.8833 6.97425 17.8833C7.25924 17.8833 7.54423 17.9169 7.82299 17.9864C8.66427 18.1972 9.39479 18.7207 9.82787 19.4238C10.1091 19.8651 10.2647 20.3805 10.2697 20.9063C10.2697 21.6592 10.9193 22.2626 11.7183 22.2626H13.2776C14.0728 22.2626 14.7225 21.6627 14.7262 20.9225C14.7212 20.1048 15.0647 19.3276 15.6932 18.7427C16.3129 18.1659 17.1791 17.8196 18.0453 17.8428C18.6127 17.8555 19.1591 17.998 19.6407 18.2528C20.3339 18.6223 21.2187 18.4022 21.6194 17.7652L22.4458 16.483C22.63 16.1876 22.6835 15.817 22.5852 15.4753C22.4881 15.1336 22.2442 14.8371 21.9156 14.6622C21.1465 14.2499 20.5977 13.5851 20.37 12.7882C20.1447 12.0064 20.2679 11.1527 20.7072 10.4497C20.9935 9.98639 21.4129 9.59606 21.9156 9.32735C22.5901 8.96019 22.8266 8.13899 22.4346 7.49964C22.4184 7.47416 22.4035 7.44752 22.391 7.41972L21.6617 6.24294C21.2648 5.60012 20.3812 5.37889 19.688 5.74606C18.9388 6.15839 18.0477 6.27653 17.1915 6.06689C16.3366 5.86072 15.6197 5.35688 15.173 4.64572C14.8867 4.20095 14.7312 3.68322 14.7262 3.15622C14.7374 2.7601 14.5881 2.40452 14.3168 2.14391C14.0467 1.88446 13.6671 1.73737 13.2776 1.73737ZM12.5034 8.07772C14.8269 8.07772 16.7173 9.83825 16.7173 12.0007C16.7173 14.1631 14.8269 15.9214 12.5034 15.9214C10.1799 15.9214 8.28955 14.1631 8.28955 12.0007C8.28955 9.83825 10.1799 8.07772 12.5034 8.07772ZM12.5034 9.81509C11.2091 9.81509 10.1563 10.7961 10.1563 12.0007C10.1563 13.2053 11.2091 14.184 12.5034 14.184C13.7977 14.184 14.8505 13.2053 14.8505 12.0007C14.8505 10.7961 13.7977 9.81509 12.5034 9.81509Z" fill="#8A8A8A"/>
</svg>
