<svg width="16" height="16" viewBox="0 0 16 16" fill="none" xmlns="http://www.w3.org/2000/svg">
<path d="M11.0026 4.5022H14.5048V8.00439" stroke="#6DC956" stroke-width="1.00189" stroke-linecap="round" stroke-linejoin="round"/>
<path d="M1.50012 11.5035L5.29376 7.70982C5.38664 7.61692 5.49692 7.54322 5.61828 7.49294C5.73965 7.44266 5.86973 7.41678 6.0011 7.41678C6.13247 7.41678 6.26256 7.44266 6.38392 7.49294C6.50529 7.54322 6.61556 7.61692 6.70845 7.70982L8.29442 9.29579C8.3873 9.3887 8.49757 9.46239 8.61894 9.51267C8.74031 9.56295 8.87039 9.58883 9.00176 9.58883C9.13313 9.58883 9.26321 9.56295 9.38458 9.51267C9.50594 9.46239 9.61622 9.3887 9.7091 9.29579L14.0028 5.00204" stroke="#6DC956" stroke-width="1.00189" stroke-linecap="round" stroke-linejoin="round"/>
</svg>
